<svg width="214" height="30" viewBox="0 0 214 30" fill="none" xmlns="http://www.w3.org/2000/svg">
<g clip-path="url(#clip0_446_2896)">
<path d="M26.4575 0C34.3368 2.34576e-07 40.7242 6.37994 40.7242 14.25V30C37.4066 30 34.7171 27.3137 34.7171 24V14.25C34.7171 9.69368 31.0192 6 26.4575 6H22.552C20.5606 6.00003 18.6505 6.79004 17.2424 8.19653L7.06371 18.364C6.50049 18.9265 6.18382 19.6895 6.18377 20.4851V21C6.18377 22.6568 7.52848 24 9.18732 24H22.7031C22.7031 27.2101 20.1793 29.8311 17.0055 29.992L16.6961 30H9.18732C4.21091 30 0.176758 25.9705 0.176758 21V20.4851C0.176804 18.0982 1.12607 15.8089 2.81583 14.1211L12.9952 3.95434C15.5299 1.42264 18.9674 3.28198e-05 22.552 0H26.4575Z" fill="#DEDEDE"/>
<path d="M27.9594 9C30.0329 9 31.7138 10.679 31.7138 12.75V30C28.3962 30 25.7068 27.3137 25.7068 24V15H23.196L18.2887 19.9016C17.5846 20.6049 16.6296 21 15.6339 21H9.54605C9.23159 21 9.07413 20.6203 9.29646 20.3982L19.6089 10.0986C20.3129 9.3954 21.2676 9 22.2633 9H27.9594Z" fill="#DEDEDE"/>
<path d="M206.355 22.5352V12.869C206.355 12.5904 206.105 12.3397 205.826 12.3397H205.463C205.24 12.3397 205.045 12.479 204.961 12.674L201.587 20.6409C201.113 21.8109 199.969 22.5352 198.714 22.5352C197.459 22.5352 196.343 21.8109 195.869 20.6409L192.467 12.674C192.411 12.479 192.216 12.3397 191.993 12.3397H191.63C191.351 12.3397 191.101 12.5904 191.101 12.869V22.5352H187.949V12.869C187.949 10.8354 189.594 9.16406 191.63 9.16406H191.993C193.471 9.16406 194.809 10.0554 195.395 11.4483L198.714 19.3038L202.033 11.4483C202.618 10.0554 203.957 9.16406 205.463 9.16406H205.826C207.862 9.16406 209.507 10.8354 209.507 12.869V22.5352H206.355Z" fill="#DEDEDE"/>
<path d="M173.565 22.5352C170.357 22.5352 167.764 19.9445 167.764 16.741V9.16406H170.915V16.741C170.915 18.1896 172.114 19.3874 173.565 19.3874H180.258C181.708 19.3874 182.907 18.1896 182.907 16.741V9.16406H186.059V16.741C186.059 19.9445 183.465 22.5352 180.258 22.5352H173.565Z" fill="#DEDEDE"/>
<path d="M161.958 19.3874C162.487 19.3874 162.934 18.9417 162.934 18.4124C162.934 17.8831 162.515 17.4653 162.013 17.4375H154.567C152.28 17.4375 150.439 15.5989 150.439 13.3146C150.439 11.0304 152.28 9.16406 154.567 9.16406H166.113V12.3397H154.567C154.037 12.3397 153.591 12.7854 153.591 13.3146C153.591 13.8439 154.037 14.2896 154.567 14.2896H162.069C164.3 14.3454 166.113 16.156 166.113 18.4124C166.113 20.6967 164.244 22.5352 161.958 22.5352H150.439V19.3874H161.958Z" fill="#DEDEDE"/>
<path d="M132.742 22.5352V12.869C132.742 10.8354 134.388 9.16406 136.424 9.16406H144.539C147.161 9.16406 149.28 11.309 149.28 13.9275C149.28 16.546 147.161 18.691 144.539 18.691H135.894V22.5352H132.742ZM135.894 12.869V15.5154H144.539C145.404 15.5154 146.129 14.7911 146.129 13.9275C146.129 13.064 145.404 12.3397 144.539 12.3397H136.424C136.145 12.3397 135.894 12.5904 135.894 12.869Z" fill="#DEDEDE"/>
<path d="M127.435 9.16406H130.586V22.5352H127.435V9.16406Z" fill="#DEDEDE"/>
<path d="M119.085 19.3874C121.037 19.3874 122.627 17.7996 122.627 15.8496C122.627 13.9275 121.037 12.3397 119.085 12.3397H114.177C112.224 12.3397 110.635 13.9275 110.635 15.8496C110.635 17.7996 112.224 19.3874 114.177 19.3874H119.085ZM119.085 9.16406C122.795 9.16406 125.779 12.1725 125.779 15.8496C125.779 19.5546 122.795 22.5352 119.085 22.5352H114.177C110.467 22.5352 107.483 19.5546 107.483 15.8496C107.483 12.1725 110.467 9.16406 114.177 9.16406H119.085Z" fill="#DEDEDE"/>
<path d="M95.2216 22.5352C91.5123 22.5352 88.5283 19.5546 88.5283 15.8496C88.5283 12.1725 91.5123 9.16406 95.2216 9.16406H104.899V12.3397H95.2216C93.2694 12.3397 91.6798 13.9275 91.6798 15.8496C91.6798 17.7996 93.2694 19.3874 95.2216 19.3874H102.333C102.863 19.3874 103.309 18.9417 103.309 18.4124C103.309 17.8831 102.863 17.4375 102.333 17.4375H94.6915V14.2896H102.333C104.62 14.2896 106.489 16.1282 106.489 18.4124C106.489 20.6967 104.62 22.5352 102.333 22.5352H95.2216Z" fill="#DEDEDE"/>
<path d="M80.7921 19.3874C82.7444 19.3874 84.334 17.7996 84.334 15.8496C84.334 13.9275 82.7444 12.3397 80.7921 12.3397H75.8836C73.9316 12.3397 72.3419 13.9275 72.3419 15.8496C72.3419 17.7996 73.9316 19.3874 75.8836 19.3874H80.7921ZM80.7921 9.16406C84.5014 9.16406 87.4854 12.1725 87.4854 15.8496C87.4854 19.5546 84.5014 22.5352 80.7921 22.5352H75.8836C72.1746 22.5352 69.1904 19.5546 69.1904 15.8496C69.1904 12.1725 72.1746 9.16406 75.8836 9.16406H80.7921Z" fill="#DEDEDE"/>
<path d="M56.2853 18.8587C56.2853 19.1373 56.5362 19.388 56.8152 19.388H68.6122V22.5358H56.8152C54.7793 22.5358 53.1338 20.8923 53.1338 18.8587V9.08105H56.2853V18.8587Z" fill="#DEDEDE"/>
<path d="M213.345 9.08121C213.345 9.97394 212.62 10.6976 211.727 10.6976C210.832 10.6976 210.108 9.97394 210.108 9.08121C210.108 8.18856 210.832 7.46484 211.727 7.46484C212.62 7.46484 213.345 8.18856 213.345 9.08121Z" fill="#DEDEDE"/>
</g>
<defs>
<clipPath id="clip0_446_2896">
<rect width="214" height="30" fill="white"/>
</clipPath>
</defs>
</svg>
